{
   "accessors" : [
      {
         "bufferView" : 0,
         "byteOffset" : 0,
         "componentType" : 5123,
         "count" : 42,
         "max" : [ 11 ],
         "min" : [ 0 ],
         "name" : "buffer-0-group-0-mesh-0-indices",
         "type" : "SCALAR"
      },
      {
         "bufferView" : 1,
         "byteOffset" : 0,
         "componentType" : 5126,
         "count" : 12,
         "max" : [ 1.355870008468628, 0.5, 0.004766569938510656 ],
         "min" : [ -0.06412979960441589, 0.1430000066757202, 0.004766569938510656 ],
         "name" : "buffer-0-group-0-mesh-0-position",
         "type" : "VEC3"
      },
      {
         "bufferView" : 1,
         "byteOffset" : 144,
         "componentType" : 5126,
         "count" : 12,
         "max" : [ 0, 0, 1 ],
         "min" : [ 0, 0, 1 ],
         "name" : "buffer-0-group-0-mesh-0-normal",
         "type" : "VEC3"
      },
      {
         "bufferView" : 2,
         "byteOffset" : 0,
         "componentType" : 5126,
         "count" : 12,
         "max" : [ 1, -0.2860000133514404 ],
         "min" : [ 0, -1 ],
         "name" : "buffer-0-group-0-mesh-0-texcoord",
         "type" : "VEC2"
      },
      {
         "bufferView" : 0,
         "byteOffset" : 84,
         "componentType" : 5123,
         "count" : 90,
         "max" : [ 59 ],
         "min" : [ 0 ],
         "name" : "buffer-0-group-1-mesh-0-indices",
         "type" : "SCALAR"
      },
      {
         "bufferView" : 1,
         "byteOffset" : 288,
         "componentType" : 5126,
         "count" : 60,
         "max" : [ 1.355870008468628, 0.5, 0.004766569938510656 ],
         "min" : [ -0.06412979960441589, 0.1430000066757202, -0.4152329862117767 ],
         "name" : "buffer-0-group-1-mesh-0-position",
         "type" : "VEC3"
      },
      {
         "bufferView" : 1,
         "byteOffset" : 1008,
         "componentType" : 5126,
         "count" : 60,
         "max" : [ 1, 1, 1 ],
         "min" : [ -1, -1, -1 ],
         "name" : "buffer-0-group-1-mesh-0-normal",
         "type" : "VEC3"
      },
      {
         "bufferView" : 2,
         "byteOffset" : 96,
         "componentType" : 5126,
         "count" : 60,
         "max" : [ 1, 0 ],
         "min" : [ -0.0007804370252415538, -1.00068998336792 ],
         "name" : "buffer-0-group-1-mesh-0-texcoord",
         "type" : "VEC2"
      },
      {
         "bufferView" : 0,
         "byteOffset" : 264,
         "componentType" : 5123,
         "count" : 324,
         "max" : [ 215 ],
         "min" : [ 0 ],
         "name" : "buffer-0-group-2-mesh-0-indices",
         "type" : "SCALAR"
      },
      {
         "bufferView" : 1,
         "byteOffset" : 1728,
         "componentType" : 5126,
         "count" : 216,
         "max" : [ 1.309329986572266, 0.1430000066757202, 0.003151349956169724 ],
         "min" : [ -0.01758559979498386, -5.164860158243941e-16, -0.4136179983615875 ],
         "name" : "buffer-0-group-2-mesh-0-position",
         "type" : "VEC3"
      },
      {
         "bufferView" : 1,
         "byteOffset" : 4320,
         "componentType" : 5126,
         "count" : 216,
         "max" : [ 1, 1, 1 ],
         "min" : [ -1, -1, -1 ],
         "name" : "buffer-0-group-2-mesh-0-normal",
         "type" : "VEC3"
      },
      {
         "bufferView" : 2,
         "byteOffset" : 576,
         "componentType" : 5126,
         "count" : 216,
         "max" : [ 42.44940185546875, 8.151769638061523 ],
         "min" : [ -42.44940185546875, -6.109149932861328 ],
         "name" : "buffer-0-group-2-mesh-0-texcoord",
         "type" : "VEC2"
      }
   ],
   "asset" : {
      "extras" : {
         "GOOGLE_processor_version" : 294144208
      },
      "generator" : "Obj2GltfConverter",
      "version" : "2.0"
   },
   "bufferViews" : [
      {
         "buffer" : 0,
         "byteLength" : 912,
         "byteOffset" : 0,
         "name" : "buffer-0-bufferview-ushort",
         "target" : 34963
      },
      {
         "buffer" : 0,
         "byteLength" : 6912,
         "byteOffset" : 912,
         "byteStride" : 12,
         "name" : "buffer-0-bufferview-vec3",
         "target" : 34962
      },
      {
         "buffer" : 0,
         "byteLength" : 2304,
         "byteOffset" : 7824,
         "byteStride" : 8,
         "name" : "buffer-0-bufferview-vec2",
         "target" : 34962
      }
   ],
   "buffers" : [
      {
         "byteLength" : 10128,
         "name" : "buffer-0",
         "uri" : "TV stand.bin"
      }
   ],
   "cameras" : [
      {
         "perspective" : {
            "yfov" : 0.7853981633974483,
            "znear" : 0.1000000014901161
         },
         "type" : "perspective"
      }
   ],
   "extensions" : {
      "KHR_lights_punctual" : {
         "lights" : [
            {
               "color" : [ 1, 0.9333333333333333, 0.8666666666666667 ],
               "intensity" : 0.25,
               "name" : "headLight",
               "type" : "directional"
            },
            {
               "color" : [ 1, 0.9333333333333333, 0.8666666666666667 ],
               "intensity" : 0.324999988079071,
               "name" : "keyLight",
               "type" : "directional"
            }
         ]
      }
   },
   "extensionsUsed" : [ "GOOGLE_backgrounds", "GOOGLE_camera_settings", "KHR_lights_punctual" ],
   "extras" : {
      "GOOGLE_initial_camera_motion" : {
         "motionPath" : "FULL_ROTATION"
      },
      "GOOGLE_lighting_rig" : {
         "disableShadows" : false
      }
   },
   "images" : [
      {
         "mimeType" : "image/jpeg",
         "name" : "M_83375_master_a_fr-diffuse-image",
         "uri" : "TV stand/M_83375_master_a_fr.jpg"
      },
      {
         "mimeType" : "image/jpeg",
         "name" : "M_83375_master_c_fr-diffuse-image",
         "uri" : "TV stand/M_83375_master_c_fr.jpg"
      }
   ],
   "materials" : [
      {
         "alphaMode" : "OPAQUE",
         "doubleSided" : true,
         "name" : "M_83375_master_a_fr",
         "pbrMetallicRoughness" : {
            "baseColorFactor" : [ 0.6470590000000001, 0.588235, 0.501961, 1 ],
            "baseColorTexture" : {
               "index" : 0,
               "texCoord" : 0
            },
            "metallicFactor" : 0,
            "roughnessFactor" : 0.9699476628648295
         }
      },
      {
         "alphaMode" : "OPAQUE",
         "doubleSided" : true,
         "name" : "M_83375_master_c_fr",
         "pbrMetallicRoughness" : {
            "baseColorFactor" : [ 0.780392, 0.7137250000000001, 0.611765, 1 ],
            "baseColorTexture" : {
               "index" : 1,
               "texCoord" : 0
            },
            "metallicFactor" : 0,
            "roughnessFactor" : 0.9699476628648295
         }
      },
      {
         "alphaMode" : "OPAQUE",
         "doubleSided" : true,
         "name" : "M_0136_Charcoal",
         "pbrMetallicRoughness" : {
            "baseColorFactor" : [ 0.137255, 0.137255, 0.137255, 1 ],
            "metallicFactor" : 0,
            "roughnessFactor" : 0.9699476628648295
         }
      }
   ],
   "meshes" : [
      {
         "name" : "buffer-0-mesh-0",
         "primitives" : [
            {
               "attributes" : {
                  "NORMAL" : 2,
                  "POSITION" : 1,
                  "TEXCOORD_0" : 3
               },
               "indices" : 0,
               "material" : 0,
               "mode" : 4
            },
            {
               "attributes" : {
                  "NORMAL" : 6,
                  "POSITION" : 5,
                  "TEXCOORD_0" : 7
               },
               "indices" : 4,
               "material" : 1,
               "mode" : 4
            },
            {
               "attributes" : {
                  "NORMAL" : 10,
                  "POSITION" : 9,
                  "TEXCOORD_0" : 11
               },
               "indices" : 8,
               "material" : 2,
               "mode" : 4
            }
         ]
      }
   ],
   "nodes" : [
      {
         "mesh" : 0,
         "name" : "node-0"
      },
      {
         "children" : [ 2 ]
      },
      {
         "children" : [ 3 ],
         "extras" : {
            "isTransformNode" : 1
         },
         "translation" : [ 0.6423201049119234, 0.2954239768486677, -0.2016832086164504 ]
      },
      {
         "children" : [ 0 ],
         "translation" : [ -0.6423201049119234, -0.2954239768486677, 0.2016832086164504 ]
      },
      {
         "camera" : 0,
         "children" : [ 5 ],
         "rotation" : [
            -0.01240282466714583,
            0.2479415669762697,
            0.00317457034269309,
            0.9686903898608511
         ],
         "translation" : [ 1.176400093215447, 0.3239148162237858, 0.7731682035629461 ]
      },
      {
         "extensions" : {
            "KHR_lights_punctual" : {
               "light" : 0
            }
         },
         "extras" : {
            "isHeadLight" : 1
         },
         "name" : "headLightNode",
         "translation" : [ -0.9746072364018186, 0.4873036182009093, 0.4873036182009093 ]
      },
      {
         "extensions" : {
            "KHR_lights_punctual" : {
               "light" : 1
            }
         },
         "extras" : {
            "isKeyLight" : 1
         },
         "name" : "keyLightNode",
         "rotation" : [ -0.7505326882858236, -0.3752663441429118, 0, 0.5439447166468927 ],
         "scale" : [ 0, 0, 0.9843533087658367 ],
         "translation" : [ -0.2807366471641368, 2.080414953653387, -1.187920019211091 ]
      }
   ],
   "samplers" : [
      {
         "name" : "M_83375_master_a_fr-diffuse-sampler",
         "wrapS" : 10497,
         "wrapT" : 10497
      },
      {
         "name" : "M_83375_master_c_fr-diffuse-sampler",
         "wrapS" : 10497,
         "wrapT" : 10497
      }
   ],
   "scene" : 0,
   "scenes" : [
      {
         "extensions" : {
            "GOOGLE_backgrounds" : {
               "color" : [ 0.3764705882352941, 0.4901960784313725, 0.5450980392156862 ]
            },
            "GOOGLE_camera_settings" : {
               "pivot" : [ 0.6423775482698558, 0.2954465588135289, -0.2016832086164522 ]
            }
         },
         "extras" : {
            "GOOGLE_camera_index" : {
               "cameraIndex" : 0,
               "nodeIndex" : 4
            },
            "GOOGLE_geometry_data" : {
               "stats" : {
                  "centroid" : [ 0.7036166616016999, 0.1117083361217131, -0.2035667104452538 ],
                  "radius" : 0.9746072364018186,
                  "stdev" : 0.6185408910718896
               },
               "visualCenterPoint" : [ 0.6423201049119234, 0.2954239768486677, -0.2016832086164504 ]
            },
            "GOOGLE_hemi_light" : {
               "groundColor" : [ 0.3764705882352941, 0.4901960784313725, 0.5450980392156862 ]
            }
         },
         "name" : "scene-0",
         "nodes" : [ 1, 4, 6 ]
      }
   ],
   "textures" : [
      {
         "name" : "M_83375_master_a_fr-diffuse-texture",
         "sampler" : 0,
         "source" : 0
      },
      {
         "name" : "M_83375_master_c_fr-diffuse-texture",
         "sampler" : 1,
         "source" : 1
      }
   ]
}
